<svg width="166" height="166" viewBox="0 0 166 166" fill="none" xmlns="http://www.w3.org/2000/svg">
<path d="M82.8384 5.1875C68.0617 5.21747 53.5991 9.45613 41.1439 17.4073L44.0943 21.6773C55.7337 14.2948 69.2213 10.375 83.0005 10.375C91.8517 10.375 100.638 11.9896 108.906 15.1475L110.948 10.3782C102.03 6.94665 92.5561 5.18705 83.0005 5.1875H82.8384ZM116.33 12.6834L114.288 17.4527C131.893 25.8532 145.38 40.9813 151.702 59.4293L156.663 57.9379C151.994 36.7988 138.507 19.8746 116.33 12.6834ZM82.806 16.5352C70.356 16.5708 58.133 20.108 47.5959 26.7448L82.3845 77.002C92.5002 58.9105 100.119 40.041 106.474 20.8148C98.9845 17.9844 91.0088 16.5352 83.0005 16.5352H82.806ZM92.338 19.4304L98.5306 27.1663L93.9916 30.8138L87.799 23.0746L92.338 19.4304ZM36.3455 20.7273C12.055 33.7836 6.69242 53.5609 5.5771 75.2188L10.7581 75.543C12.8299 55.4738 23.1692 37.1555 39.2959 24.994L36.3455 20.7273ZM72.042 23.0195C74.7005 23.0195 77.1646 23.7069 79.1423 25.0297C81.1201 26.3493 82.7088 28.515 82.7088 31.125C82.7088 33.7512 81.1201 35.891 79.1423 37.2203C77.1646 38.5496 74.7005 39.2305 72.042 39.2305C69.3834 39.2305 66.9193 38.5496 64.9416 37.2203C62.9638 35.891 61.3752 33.7512 61.3752 31.125C61.3752 28.515 62.9638 26.3493 64.9416 25.0297C66.9193 23.7069 69.3834 23.0195 72.042 23.0195ZM111.856 23.12C105.923 42.343 98.3361 60.8883 88.1556 78.3961L110.3 71.782C109.262 70.1934 108.679 68.248 108.679 66.2055C108.679 61.3422 112.083 56.868 116.914 56.868C121.745 56.868 125.149 61.3422 125.149 66.2055C125.149 66.5945 125.117 66.9836 125.084 67.4051L145.802 61.2125C139.998 44.5152 127.775 30.7943 111.856 23.12ZM72.042 28.8555C70.4209 28.8555 69.0267 29.3223 68.1838 29.88C67.3408 30.4344 67.2111 30.8689 67.2111 31.125C67.2111 31.3811 67.3408 31.8156 68.1838 32.37C69.0267 32.9406 70.4209 33.3945 72.042 33.3945C73.663 33.3945 75.0572 32.9406 75.9002 32.37C76.7431 31.8156 76.8728 31.3811 76.8728 31.125C76.8728 30.8689 76.7431 30.4344 75.9002 29.88C75.0572 29.3223 73.663 28.8555 72.042 28.8555ZM42.7974 30.0616C28.2205 41.1434 18.8539 57.7434 16.9118 75.932C37.2209 76.1266 57.4845 76.5156 77.197 79.693L71.0045 70.7445L65.0064 74.0191L62.2181 68.8965L67.665 65.9137L49.1845 39.2953L41.6951 45.2285L38.0638 40.6246L45.8451 34.4645L42.7974 30.0616ZM118.535 34.5293L122.49 41.0461L117.497 44.0938L113.542 37.577L118.535 34.5293ZM84.0056 42.0188L86.5345 47.2711L76.7431 51.9074L74.2142 46.6551L84.0056 42.0188ZM40.0091 48.957C45.5209 48.957 49.606 54.0148 49.606 59.6562C49.606 65.2977 45.5209 70.3555 40.0091 70.3555C34.4974 70.3555 30.4123 65.2977 30.4123 59.6562C30.4123 54.0148 34.4974 48.957 40.0091 48.957ZM136.626 51.9723L137.826 60.9207L132.055 61.6988L130.855 52.7504L136.626 51.9723ZM40.0091 54.793C38.1611 54.793 36.2482 56.7059 36.2482 59.6562C36.2482 62.6066 38.1611 64.5195 40.0091 64.5195C41.8572 64.5195 43.7701 62.6066 43.7701 59.6562C43.7701 56.7059 41.8572 54.793 40.0091 54.793ZM116.914 62.7039C115.876 62.7039 114.515 63.9684 114.515 66.2055C114.515 68.4426 115.876 69.707 116.914 69.707C117.951 69.707 119.313 68.4426 119.313 66.2055C119.313 63.9684 117.951 62.7039 116.914 62.7039ZM158.349 63.5469L153.356 65.0059C154.847 70.8742 155.626 76.9371 155.626 83C155.626 98.2707 150.827 113.152 141.879 125.538L145.964 128.747C155.626 115.454 160.813 99.4379 160.813 83C160.813 76.4508 160.003 69.9016 158.349 63.5469ZM147.455 66.7891L107.252 78.8176L110.494 81.1195L107.122 85.8531L100.184 80.925L89.2256 84.1996C103.848 98.1086 120.902 109.391 137.015 121.712C144.732 110.429 147.196 96.8766 149.465 83C150.341 77.5855 148.785 72.0738 147.455 66.7891ZM5.21074 81.0547C5.17831 81.7031 5.21074 82.3516 5.17831 83C3.53128 105.793 8.11574 127.969 31.9491 141.748L35.2107 137.696C19.4277 123.916 10.3723 103.977 10.3755 83V81.3789L5.21074 81.0547ZM16.5487 81.768V83C16.5487 90.1328 17.6899 97.2008 19.9368 103.977L23.4999 96.3578L28.7847 98.8219L22.9066 111.402C26.7778 119.604 32.2798 126.899 39.0689 132.897L77.1646 85.5613L35.308 82.9352L27.3322 90.8785L23.2081 86.7285L27.4943 82.4488L16.5487 81.768ZM135.719 86.0152C136.464 85.9828 137.21 86.0801 137.956 86.3394C140.29 87.0527 141.944 88.9656 142.722 91.1379C143.5 93.2453 143.5 95.6445 142.754 98.0113C142.041 100.346 140.614 102.323 138.799 103.653C136.918 104.917 134.486 105.566 132.12 104.82C131.277 104.561 130.531 104.139 129.883 103.62L127.354 106.506L118.405 98.7895L122.231 94.3801L126.932 98.4328C126.608 96.7145 126.738 94.8988 127.289 93.148C128.035 90.7812 129.429 88.8359 131.277 87.5391C132.574 86.6312 134.13 86.0477 135.719 86.0152ZM51.065 87.7984L60.6943 91.4297L58.6193 96.8766L48.99 93.2453L51.065 87.7984ZM86.3076 89.2898L88.0259 116.719C89.5822 117.043 91.0088 117.562 92.2732 118.307C94.4455 119.572 96.2935 121.744 96.2935 124.5C96.2935 127.256 94.4455 129.428 92.2732 130.693C91.2681 131.276 90.1658 131.73 88.9986 132.054L90.0685 149.076C93.6673 148.687 97.2013 148.006 100.67 147.066L101.805 137.631L107.576 138.344L106.766 145.055C117.076 141.132 126.219 134.68 133.417 126.316C126.705 121.031 118.697 117.27 113.25 110.461L110.916 116.978L105.404 115.033L108.387 106.636C99.2439 102.096 93.5377 95.1582 86.3076 89.2898ZM80.5689 90.684L43.608 136.529C55.0205 144.926 68.8322 149.465 83.0005 149.465H84.2326L83.1627 132.541C80.8283 132.379 78.6884 131.763 76.9052 130.693C74.733 129.428 72.8849 127.256 72.8849 124.5C72.8849 121.744 74.733 119.572 76.9052 118.307C78.4291 117.4 80.2447 116.816 82.19 116.557L80.5689 90.684ZM135.881 91.8512C135.556 91.8187 135.167 91.9484 134.649 92.2727C133.968 92.759 133.254 93.6992 132.865 94.8988C132.509 96.0984 132.574 97.2656 132.833 98.0437C133.125 98.8219 133.514 99.1461 133.87 99.2434C134.26 99.373 134.746 99.3082 135.427 98.8543C136.075 98.4004 136.821 97.4602 137.21 96.2605C137.567 95.0609 137.502 93.8613 137.242 93.1156C136.951 92.3375 136.561 92.0133 136.205 91.8836C136.108 91.8512 136.01 91.8512 135.881 91.8512ZM40.7873 101.545C42.1814 101.578 43.5755 101.902 44.8724 102.518C49.5087 104.755 51.7783 110.332 49.5412 114.968C47.3041 119.637 41.533 121.355 36.8966 119.118C32.2538 116.881 30.0037 111.337 32.2344 106.668C33.849 103.329 37.2533 101.513 40.7873 101.545ZM40.4955 107.349C39.1986 107.381 38.0314 108.062 37.4802 109.197C36.7021 110.85 37.4478 112.925 39.4255 113.866C41.4033 114.806 43.4783 114.093 44.2888 112.439C45.067 110.818 44.3213 108.743 42.3435 107.803C41.7275 107.479 41.0791 107.349 40.4955 107.349ZM84.5892 122.23C82.6439 122.23 80.8931 122.749 79.8556 123.333C78.8181 123.949 78.7209 124.403 78.7209 124.5C78.7209 124.597 78.8181 125.051 79.8556 125.667C80.8931 126.251 82.6439 126.77 84.5892 126.77C86.5345 126.77 88.2853 126.251 89.3228 125.667C90.3603 125.051 90.4576 124.597 90.4576 124.5C90.4576 124.403 90.3603 123.949 89.3228 123.333C88.2853 122.749 86.5345 122.23 84.5892 122.23ZM138.247 130.141C126.122 144.342 109.035 153.323 90.4576 155.236L90.7818 160.423C111.532 161.493 131.179 156.76 142.333 133.351L138.247 130.141ZM58.522 131.114L67.6326 131.957L67.1138 137.793L58.0033 136.95L58.522 131.114ZM39.7498 141.327L36.5076 145.38C48.2119 159.97 65.7521 162.142 83.0005 160.812C83.649 160.748 84.2974 160.812 84.9459 160.78L84.6216 155.593C84.0705 155.625 83.5517 155.625 83.0005 155.625C67.438 155.625 52.2646 150.6 39.7498 141.327Z" fill="black"/>
</svg>
