<svg width="50" height="50" viewBox="0 0 50 50" fill="none" xmlns="http://www.w3.org/2000/svg">
<path d="M18.5 20.0284H48.5C48.775 20.0284 49 19.7727 49 19.4602V15.483C49 15.1705 48.775 14.9148 48.5 14.9148H18.5C18.225 14.9148 18 15.1705 18 15.483V19.4602C18 19.7727 18.225 20.0284 18.5 20.0284ZM18 34.517C18 34.8295 18.225 35.0852 18.5 35.0852H48.5C48.775 35.0852 49 34.8295 49 34.517V30.5398C49 30.2273 48.775 29.9716 48.5 29.9716H18.5C18.225 29.9716 18 30.2273 18 30.5398V34.517ZM49.5 0H0.5C0.225 0 0 0.255682 0 0.568182V4.54545C0 4.85795 0.225 5.11364 0.5 5.11364H49.5C49.775 5.11364 50 4.85795 50 4.54545V0.568182C50 0.255682 49.775 0 49.5 0ZM49.5 44.8864H0.5C0.225 44.8864 0 45.142 0 45.4545V49.4318C0 49.7443 0.225 50 0.5 50H49.5C49.775 50 50 49.7443 50 49.4318V45.4545C50 45.142 49.775 44.8864 49.5 44.8864ZM0.2125 25.4901L9.98125 34.233C10.3438 34.5597 10.8813 34.2685 10.8813 33.7429V16.2571C10.8813 15.7315 10.35 15.4403 9.98125 15.767L0.2125 24.5099C0.146814 24.568 0.0936614 24.6423 0.0570989 24.7272C0.0205363 24.8122 0.00152969 24.9055 0.00152969 25C0.00152969 25.0945 0.0205363 25.1878 0.0570989 25.2728C0.0936614 25.3577 0.146814 25.432 0.2125 25.4901Z" fill="#69443D"/>
</svg>
