<svg width="60" height="59" viewBox="0 0 60 59" fill="none" xmlns="http://www.w3.org/2000/svg">
<path d="M29.7529 20.6831C27.4206 20.6831 25.1839 21.612 23.5347 23.2655C21.8855 24.919 20.959 27.1616 20.959 29.5C20.959 31.8384 21.8855 34.081 23.5347 35.7345C25.1839 37.388 27.4206 38.3169 29.7529 38.3169C32.0852 38.3169 34.322 37.388 35.9711 35.7345C37.6203 34.081 38.5468 31.8384 38.5468 29.5C38.5468 27.1616 37.6203 24.919 35.9711 23.2655C34.322 21.612 32.0852 20.6831 29.7529 20.6831ZM29.7529 14.8052C33.6401 14.8052 37.368 16.3534 40.1166 19.1092C42.8652 21.865 44.4094 25.6027 44.4094 29.5C44.4094 33.3973 42.8652 37.135 40.1166 39.8908C37.368 42.6466 33.6401 44.1948 29.7529 44.1948C25.8658 44.1948 22.1378 42.6466 19.3892 39.8908C16.6406 37.135 15.0964 33.3973 15.0964 29.5C15.0964 25.6027 16.6406 21.865 19.3892 19.1092C22.1378 16.3534 25.8658 14.8052 29.7529 14.8052ZM48.8063 14.0704C48.8063 15.0448 48.4203 15.9792 47.7331 16.6681C47.046 17.3571 46.114 17.7441 45.1422 17.7441C44.1704 17.7441 43.2384 17.3571 42.5513 16.6681C41.8641 15.9792 41.4781 15.0448 41.4781 14.0704C41.4781 13.0961 41.8641 12.1617 42.5513 11.4727C43.2384 10.7838 44.1704 10.3967 45.1422 10.3967C46.114 10.3967 47.046 10.7838 47.7331 11.4727C48.4203 12.1617 48.8063 13.0961 48.8063 14.0704ZM29.7529 5.9883C22.5009 5.9883 21.3167 6.00887 17.9427 6.15876C15.6446 6.2675 14.1027 6.57609 12.6723 7.13449C11.4758 7.57643 10.3938 8.28255 9.50647 9.20058C8.58977 10.09 7.88447 11.1748 7.44284 12.3747C6.88589 13.8148 6.5781 15.3577 6.47258 17.6589C6.32015 20.9035 6.29963 22.038 6.29963 29.5C6.29963 36.7739 6.32015 37.9583 6.46965 41.3411C6.5781 43.6423 6.88589 45.1911 7.4399 46.6224C7.93822 47.9008 8.52448 48.8207 9.49767 49.7965C10.4855 50.784 11.403 51.3747 12.6635 51.8626C14.1115 52.4239 15.6534 52.7354 17.9398 52.8412C21.176 52.9941 22.3074 53.0117 29.75 53.0117C37.0049 53.0117 38.1862 52.9911 41.5602 52.8412C43.8524 52.7325 45.3943 52.4239 46.8277 51.8684C48.0242 51.4265 49.1061 50.7204 49.9935 49.8024C50.9814 48.8149 51.5705 47.895 52.0571 46.6283C52.6141 45.1823 52.9248 43.6364 53.0303 41.3381C53.1828 38.0965 53.2003 36.9591 53.2003 29.5C53.2003 22.229 53.1798 21.0417 53.0303 17.6589C52.9219 15.3607 52.6112 13.8089 52.0571 12.3747C51.6164 11.1751 50.9121 10.0903 49.9964 9.20058C49.1094 8.28149 48.0274 7.57434 46.8306 7.13155C45.3943 6.57315 43.8524 6.26456 41.5602 6.15876C38.327 6.00593 37.1955 5.9883 29.75 5.9883M29.75 0.110371C37.7143 0.110371 38.708 0.13976 41.8357 0.286708C44.9546 0.433656 47.0827 0.924464 48.95 1.65333C50.8846 2.39982 52.5144 3.41083 54.1442 5.04195C55.6354 6.51065 56.7888 8.28795 57.524 10.2498C58.248 12.1219 58.7405 14.2556 58.8871 17.3856C59.0248 20.5185 59.0629 21.5148 59.0629 29.5C59.0629 37.4852 59.0336 38.4815 58.8871 41.6144C58.7405 44.7473 58.248 46.8751 57.524 48.7502C56.7888 50.712 55.6354 52.4894 54.1442 53.958C52.6794 55.4531 50.9067 56.6095 48.95 57.3467C47.0827 58.0726 44.9546 58.5663 41.8357 58.7133C38.708 58.8514 37.7143 58.8896 29.75 58.8896C21.7857 58.8896 20.792 58.8602 17.6643 58.7133C14.5454 58.5663 12.4202 58.0726 10.55 57.3467C8.59329 56.6095 6.82062 55.4531 5.35575 53.958C3.86462 52.4894 2.71119 50.712 1.97597 48.7502C1.24901 46.8781 0.759484 44.7444 0.61292 41.6144C0.472218 38.4815 0.437042 37.4852 0.437042 29.5C0.437042 21.5148 0.466355 20.5185 0.61292 17.3856C0.759484 14.2527 1.24901 12.1249 1.97597 10.2498C2.71119 8.28795 3.86462 6.51065 5.35575 5.04195C6.82062 3.54692 8.59329 2.39047 10.55 1.65333C12.4172 0.924464 14.5424 0.433656 17.6643 0.286708C20.7949 0.148577 21.7886 0.110371 29.7529 0.110371" fill="#93250C"/>
</svg>
