<svg width="38" height="37" viewBox="0 0 38 37" fill="none" xmlns="http://www.w3.org/2000/svg">
<g filter="url(#filter0_d_22_423)">
<mask id="path-1-inside-1_22_423" fill="white">
<path d="M33.1009 18.7759C32.2079 21.6804 30.4183 24.2303 27.9868 26.0628C25.8519 27.6637 23.3115 28.6402 20.6507 28.8824C17.9898 29.1247 15.3139 28.6233 12.9231 27.4344C10.5324 26.2454 8.5216 24.4162 7.11634 22.1518C5.71108 19.8874 4.96701 17.2776 4.96766 14.6153C4.95815 11.5079 5.972 8.4831 7.85369 6.00497C9.69275 3.58216 12.2519 1.79901 15.1669 0.909261C15.359 0.850317 15.5636 0.844673 15.7587 0.892935C15.9538 0.941198 16.132 1.04154 16.2742 1.18318C16.4163 1.32481 16.517 1.50237 16.5655 1.69677C16.6139 1.89117 16.6082 2.09505 16.5491 2.28648C15.9117 4.38733 15.8582 6.62112 16.3945 8.74985C16.9307 10.8786 18.0365 12.8225 19.594 14.3744C21.1515 15.9263 23.1025 17.0281 25.2389 17.5624C27.3753 18.0967 29.6172 18.0434 31.7256 17.4083C31.9177 17.3494 32.1224 17.3437 32.3175 17.392C32.5126 17.4403 32.6908 17.5406 32.8329 17.6822C32.9751 17.8239 33.0758 18.0014 33.1242 18.1958C33.1726 18.3902 33.167 18.5941 33.1078 18.7855L33.1009 18.7759Z"/>
</mask>
<path d="M33.1009 18.7759C32.2079 21.6804 30.4183 24.2303 27.9868 26.0628C25.8519 27.6637 23.3115 28.6402 20.6507 28.8824C17.9898 29.1247 15.3139 28.6233 12.9231 27.4344C10.5324 26.2454 8.5216 24.4162 7.11634 22.1518C5.71108 19.8874 4.96701 17.2776 4.96766 14.6153C4.95815 11.5079 5.972 8.4831 7.85369 6.00497C9.69275 3.58216 12.2519 1.79901 15.1669 0.909261C15.359 0.850317 15.5636 0.844673 15.7587 0.892935C15.9538 0.941198 16.132 1.04154 16.2742 1.18318C16.4163 1.32481 16.517 1.50237 16.5655 1.69677C16.6139 1.89117 16.6082 2.09505 16.5491 2.28648C15.9117 4.38733 15.8582 6.62112 16.3945 8.74985C16.9307 10.8786 18.0365 12.8225 19.594 14.3744C21.1515 15.9263 23.1025 17.0281 25.2389 17.5624C27.3753 18.0967 29.6172 18.0434 31.7256 17.4083C31.9177 17.3494 32.1224 17.3437 32.3175 17.392C32.5126 17.4403 32.6908 17.5406 32.8329 17.6822C32.9751 17.8239 33.0758 18.0014 33.1242 18.1958C33.1726 18.3902 33.167 18.5941 33.1078 18.7855L33.1009 18.7759Z" fill="#69443D"/>
<path d="M33.1009 18.7759L35.5388 17.0276L32.0118 12.1095L30.2334 17.8943L33.1009 18.7759ZM27.9868 26.0628L29.7867 28.4629L29.7923 28.4586L27.9868 26.0628ZM4.96766 14.6153L7.96767 14.6161L7.96764 14.6062L4.96766 14.6153ZM7.85369 6.00497L10.243 7.81918L10.2432 7.8188L7.85369 6.00497ZM15.1669 0.909261L16.0427 3.77858L16.0468 3.77731L15.1669 0.909261ZM16.5491 2.28648L13.6828 1.40072L13.6806 1.40809L13.6783 1.41547L16.5491 2.28648ZM31.7256 17.4083L32.5909 20.2808L32.5982 20.2786L32.6056 20.2764L31.7256 17.4083ZM33.1078 18.7855L30.6699 20.5339L34.1905 25.443L35.9741 19.6713L33.1078 18.7855ZM30.2334 17.8943C29.5265 20.1935 28.1093 22.214 26.1813 23.6669L29.7923 28.4586C32.7274 26.2467 34.8894 23.1673 35.9684 19.6575L30.2334 17.8943ZM26.1869 23.6627C24.4976 24.9295 22.4863 25.7029 20.3786 25.8948L20.9227 31.8701C24.1367 31.5774 27.2062 30.398 29.7867 28.4629L26.1869 23.6627ZM20.3786 25.8948C18.2709 26.0867 16.1517 25.6894 14.259 24.7482L11.5873 30.1205C14.4761 31.5571 17.7087 32.1627 20.9227 31.8701L20.3786 25.8948ZM14.259 24.7482C12.3664 23.807 10.7761 22.3596 9.66536 20.5699L4.56732 23.7337C6.26711 26.4727 8.69847 28.6839 11.5873 30.1205L14.259 24.7482ZM9.66536 20.5699C8.55469 18.7802 7.96715 16.7185 7.96766 14.6161L1.96766 14.6146C1.96687 17.8368 2.86746 20.9947 4.56732 23.7337L9.66536 20.5699ZM7.96764 14.6062C7.96015 12.158 8.75883 9.77374 10.243 7.81918L5.46441 4.19075C3.18517 7.19245 1.95615 10.8578 1.96767 14.6245L7.96764 14.6062ZM10.2432 7.8188C11.7003 5.8992 13.7293 4.48468 16.0427 3.77858L14.2911 -1.96006C10.7744 -0.886667 7.68516 1.26511 5.46412 4.19114L10.2432 7.8188ZM16.0468 3.77731C15.7193 3.8778 15.3708 3.88739 15.0383 3.80515L16.4791 -2.01928C15.7565 -2.19805 14.9987 -2.17717 14.287 -1.95879L16.0468 3.77731ZM15.0383 3.80515C14.7058 3.7229 14.4009 3.5516 14.1567 3.30832L18.3917 -0.941969C17.8632 -1.46851 17.2018 -1.84051 16.4791 -2.01928L15.0383 3.80515ZM14.1567 3.30832C13.9125 3.06497 13.7384 2.75876 13.6545 2.42209L19.4765 0.971453C19.2957 0.245991 18.9202 -0.415348 18.3917 -0.941969L14.1567 3.30832ZM13.6545 2.42209C13.5706 2.08538 13.5804 1.73213 13.6828 1.40072L19.4153 3.17224C19.6361 2.45797 19.6572 1.69696 19.4765 0.971453L13.6545 2.42209ZM13.6783 1.41547C12.8828 4.03747 12.8161 6.8257 13.4853 9.48265L19.3036 8.01705C18.9004 6.41655 18.9406 4.73718 19.4199 3.15749L13.6783 1.41547ZM13.4853 9.48265C14.1546 12.1395 15.5344 14.5645 17.4765 16.4995L21.7115 12.2492C20.5385 11.0805 19.7068 9.61761 19.3036 8.01705L13.4853 9.48265ZM17.4765 16.4995C19.4185 18.4345 21.8499 19.8073 24.511 20.4728L25.9667 14.652C24.355 14.249 22.8846 13.4181 21.7115 12.2492L17.4765 16.4995ZM24.511 20.4728C27.1721 21.1383 29.9645 21.072 32.5909 20.2808L30.8603 14.5358C29.2699 15.0149 27.5784 15.0551 25.9667 14.652L24.511 20.4728ZM32.6056 20.2764C32.278 20.3769 31.9295 20.3865 31.5971 20.3042L33.0379 14.4798C32.3152 14.301 31.5575 14.3219 30.8457 14.5403L32.6056 20.2764ZM31.5971 20.3042C31.2646 20.222 30.9596 20.0507 30.7154 19.8074L34.9504 15.5571C34.4219 15.0305 33.7605 14.6586 33.0379 14.4798L31.5971 20.3042ZM30.7154 19.8074C30.4712 19.564 30.2971 19.2578 30.2132 18.9212L36.0352 17.4705C35.8544 16.7451 35.4789 16.0837 34.9504 15.5571L30.7154 19.8074ZM30.2132 18.9212C30.1293 18.5844 30.1391 18.2312 30.2416 17.8998L35.9741 19.6713C36.1948 18.957 36.216 18.196 36.0352 17.4705L30.2132 18.9212ZM35.5457 17.0372L35.5388 17.0276L30.663 20.5242L30.6699 20.5339L35.5457 17.0372Z" fill="white" mask="url(#path-1-inside-1_22_423)"/>
</g>
<defs>
<filter id="filter0_d_22_423" x="0.96759" y="0.860474" width="36.1892" height="36.0814" filterUnits="userSpaceOnUse" color-interpolation-filters="sRGB">
<feFlood flood-opacity="0" result="BackgroundImageFix"/>
<feColorMatrix in="SourceAlpha" type="matrix" values="0 0 0 0 0 0 0 0 0 0 0 0 0 0 0 0 0 0 127 0" result="hardAlpha"/>
<feOffset dy="4"/>
<feGaussianBlur stdDeviation="2"/>
<feComposite in2="hardAlpha" operator="out"/>
<feColorMatrix type="matrix" values="0 0 0 0 0 0 0 0 0 0 0 0 0 0 0 0 0 0 0.25 0"/>
<feBlend mode="normal" in2="BackgroundImageFix" result="effect1_dropShadow_22_423"/>
<feBlend mode="normal" in="SourceGraphic" in2="effect1_dropShadow_22_423" result="shape"/>
</filter>
</defs>
</svg>
