<svg width="30" height="29" viewBox="0 0 30 29" fill="none" xmlns="http://www.w3.org/2000/svg">
<mask id="path-1-inside-1_95_325" fill="white">
<path d="M29.1011 18.7759C28.2081 21.6804 26.4185 24.2303 23.987 26.0628C21.8521 27.6637 19.3117 28.6402 16.6508 28.8824C13.99 29.1247 11.314 28.6233 8.92333 27.4344C6.53262 26.2454 4.52178 24.4162 3.11652 22.1518C1.71126 19.8874 0.967193 17.2776 0.96784 14.6153C0.958335 11.5079 1.97218 8.4831 3.85387 6.00497C5.69293 3.58216 8.25206 1.79901 11.1671 0.909261C11.3592 0.850317 11.5638 0.844673 11.7589 0.892935C11.954 0.941198 12.1322 1.04154 12.2744 1.18318C12.4165 1.32481 12.5172 1.50237 12.5657 1.69677C12.6141 1.89117 12.6084 2.09505 12.5493 2.28648C11.9119 4.38733 11.8584 6.62112 12.3946 8.74985C12.9309 10.8786 14.0366 12.8225 15.5942 14.3744C17.1517 15.9263 19.1026 17.0281 21.2391 17.5624C23.3755 18.0967 25.6174 18.0434 27.7258 17.4083C27.9179 17.3494 28.1225 17.3437 28.3176 17.392C28.5127 17.4403 28.691 17.5406 28.8331 17.6822C28.9752 17.8239 29.0759 18.0014 29.1244 18.1958C29.1728 18.3902 29.1672 18.5941 29.108 18.7855L29.1011 18.7759Z"/>
</mask>
<path d="M29.1011 18.7759C28.2081 21.6804 26.4185 24.2303 23.987 26.0628C21.8521 27.6637 19.3117 28.6402 16.6508 28.8824C13.99 29.1247 11.314 28.6233 8.92333 27.4344C6.53262 26.2454 4.52178 24.4162 3.11652 22.1518C1.71126 19.8874 0.967193 17.2776 0.96784 14.6153C0.958335 11.5079 1.97218 8.4831 3.85387 6.00497C5.69293 3.58216 8.25206 1.79901 11.1671 0.909261C11.3592 0.850317 11.5638 0.844673 11.7589 0.892935C11.954 0.941198 12.1322 1.04154 12.2744 1.18318C12.4165 1.32481 12.5172 1.50237 12.5657 1.69677C12.6141 1.89117 12.6084 2.09505 12.5493 2.28648C11.9119 4.38733 11.8584 6.62112 12.3946 8.74985C12.9309 10.8786 14.0366 12.8225 15.5942 14.3744C17.1517 15.9263 19.1026 17.0281 21.2391 17.5624C23.3755 18.0967 25.6174 18.0434 27.7258 17.4083C27.9179 17.3494 28.1225 17.3437 28.3176 17.392C28.5127 17.4403 28.691 17.5406 28.8331 17.6822C28.9752 17.8239 29.0759 18.0014 29.1244 18.1958C29.1728 18.3902 29.1672 18.5941 29.108 18.7855L29.1011 18.7759Z" fill="#69443D"/>
<path d="M29.1011 18.7759L31.539 17.0276L28.012 12.1095L26.2335 17.8943L29.1011 18.7759ZM23.987 26.0628L25.7868 28.4629L25.7925 28.4586L23.987 26.0628ZM0.96784 14.6153L3.96786 14.6161L3.96783 14.6062L0.96784 14.6153ZM3.85387 6.00497L6.24314 7.81918L6.24343 7.8188L3.85387 6.00497ZM11.1671 0.909261L12.0429 3.77858L12.047 3.77731L11.1671 0.909261ZM12.5493 2.28648L9.68302 1.40072L9.68074 1.40809L9.6785 1.41547L12.5493 2.28648ZM27.7258 17.4083L28.5911 20.2808L28.5984 20.2786L28.6057 20.2764L27.7258 17.4083ZM29.108 18.7855L26.6701 20.5339L30.1906 25.443L31.9743 19.6713L29.108 18.7855ZM26.2335 17.8943C25.5267 20.1935 24.1094 22.214 22.1814 23.6669L25.7925 28.4586C28.7276 26.2467 30.8896 23.1673 31.9686 19.6575L26.2335 17.8943ZM22.1871 23.6627C20.4978 24.9295 18.4865 25.7029 16.3788 25.8948L16.9229 31.8701C20.1369 31.5774 23.2064 30.398 25.7868 28.4629L22.1871 23.6627ZM16.3788 25.8948C14.2711 26.0867 12.1518 25.6894 10.2592 24.7482L7.58749 30.1205C10.4762 31.5571 13.7089 32.1627 16.9229 31.8701L16.3788 25.8948ZM10.2592 24.7482C8.36659 23.807 6.77627 22.3596 5.66554 20.5699L0.567499 23.7337C2.2673 26.4727 4.69865 28.6839 7.58749 30.1205L10.2592 24.7482ZM5.66554 20.5699C4.55488 18.7802 3.96733 16.7185 3.96784 14.6161L-2.03216 14.6146C-2.03294 17.8368 -1.13236 20.9947 0.567499 23.7337L5.66554 20.5699ZM3.96783 14.6062C3.96034 12.158 4.75901 9.77374 6.24314 7.81918L1.4646 4.19075C-0.81465 7.19245 -2.04367 10.8578 -2.03215 14.6245L3.96783 14.6062ZM6.24343 7.8188C7.70053 5.8992 9.72952 4.48468 12.0429 3.77858L10.2913 -1.96006C6.7746 -0.886667 3.68534 1.26511 1.4643 4.19114L6.24343 7.8188ZM12.047 3.77731C11.7195 3.8778 11.371 3.88739 11.0385 3.80515L12.4793 -2.01928C11.7567 -2.19805 10.9989 -2.17717 10.2871 -1.95879L12.047 3.77731ZM11.0385 3.80515C10.706 3.7229 10.401 3.5516 10.1569 3.30832L14.3919 -0.941969C13.8634 -1.46851 13.202 -1.84051 12.4793 -2.01928L11.0385 3.80515ZM10.1569 3.30832C9.91264 3.06497 9.73855 2.75876 9.65466 2.42209L15.4767 0.971453C15.2959 0.245991 14.9204 -0.415348 14.3919 -0.941969L10.1569 3.30832ZM9.65466 2.42209C9.57076 2.08538 9.5806 1.73213 9.68302 1.40072L15.4155 3.17224C15.6363 2.45797 15.6574 1.69696 15.4767 0.971453L9.65466 2.42209ZM9.6785 1.41547C8.88296 4.03747 8.81624 6.8257 9.48551 9.48265L15.3038 8.01705C14.9006 6.41655 14.9408 4.73718 15.42 3.15749L9.6785 1.41547ZM9.48551 9.48265C10.1548 12.1395 11.5346 14.5645 13.4767 16.4995L17.7117 12.2492C16.5387 11.0805 15.7069 9.61761 15.3038 8.01705L9.48551 9.48265ZM13.4767 16.4995C15.4187 18.4345 17.8501 19.8073 20.5112 20.4728L21.9669 14.652C20.3552 14.249 18.8848 13.4181 17.7117 12.2492L13.4767 16.4995ZM20.5112 20.4728C23.1723 21.1383 25.9647 21.072 28.5911 20.2808L26.8605 14.5358C25.27 15.0149 23.5786 15.0551 21.9669 14.652L20.5112 20.4728ZM28.6057 20.2764C28.2782 20.3769 27.9297 20.3865 27.5972 20.3042L29.038 14.4798C28.3154 14.301 27.5576 14.3219 26.8459 14.5403L28.6057 20.2764ZM27.5972 20.3042C27.2648 20.222 26.9598 20.0507 26.7156 19.8074L30.9506 15.5571C30.4221 15.0305 29.7607 14.6586 29.038 14.4798L27.5972 20.3042ZM26.7156 19.8074C26.4714 19.564 26.2973 19.2578 26.2134 18.9212L32.0354 17.4705C31.8546 16.7451 31.4791 16.0837 30.9506 15.5571L26.7156 19.8074ZM26.2134 18.9212C26.1295 18.5844 26.1393 18.2312 26.2417 17.8998L31.9743 19.6713C32.195 18.957 32.2162 18.196 32.0354 17.4705L26.2134 18.9212ZM31.5459 17.0372L31.539 17.0276L26.6632 20.5242L26.6701 20.5339L31.5459 17.0372Z" fill="white" mask="url(#path-1-inside-1_95_325)"/>
</svg>
