<svg width="68" height="69" viewBox="0 0 68 69" fill="none" xmlns="http://www.w3.org/2000/svg">
<g filter="url(#filter0_d_22_160)">
<path d="M33.6795 60.13C50.045 60.13 63.311 46.864 63.311 30.4985C63.311 14.133 50.045 0.867023 33.6795 0.867023C17.3141 0.867023 4.04803 14.133 4.04803 30.4985C4.04803 42.3689 11.0292 52.6095 21.1098 57.3387L27.8955 25.4375C28.0693 24.6794 28.5342 24.0201 29.1899 23.6018C29.8455 23.1835 30.6393 23.0397 31.4001 23.2015C32.1608 23.3633 32.8274 23.8176 33.256 24.4666C33.6847 25.1155 33.8411 25.9069 33.6914 26.6701C32.8795 30.4985 32.1683 31.9801 32.2009 33.758C32.2513 36.5433 33.0099 38.0308 33.7447 38.8013C34.4944 39.5865 35.5759 40.0102 36.9894 39.9865C38.4324 39.9569 40.0651 39.4502 41.5111 38.5375C44.3232 36.7715 45.5321 33.7432 45.5321 30.4985C45.5302 28.7377 45.1359 26.9995 44.378 25.4101C43.6201 23.8207 42.5176 22.4202 41.1507 21.3103C39.7837 20.2004 38.1866 19.409 36.4755 18.9936C34.7644 18.5783 32.9822 18.5494 31.2585 18.909C29.5348 19.2687 27.9129 20.0079 26.5107 21.0729C25.1085 22.1379 23.9612 23.5019 23.1521 25.0659C22.3431 26.6298 21.8927 28.3544 21.8336 30.1142C21.7746 31.874 22.1083 33.6249 22.8107 35.2396C23.0971 35.9545 23.0938 36.7527 22.8017 37.4653C22.5096 38.1779 21.9516 38.7487 21.2458 39.0569C20.5401 39.3651 19.7421 39.3864 19.0209 39.1163C18.2997 38.8463 17.7119 38.306 17.3822 37.6101C16.2026 34.9045 15.7152 31.9479 15.9638 29.0069C16.2125 26.0659 17.1894 23.2331 18.8065 20.764C20.4236 18.2949 22.6299 16.2672 25.2264 14.8639C27.823 13.4606 30.728 12.7258 33.6795 12.7258C36.631 12.7258 39.5361 13.4606 42.1326 14.8639C44.7292 16.2672 46.9355 18.2949 48.5526 20.764C50.1697 23.2331 51.1466 26.0659 51.3952 29.0069C51.6439 31.9479 51.1564 34.9045 49.9769 37.6101C48.8864 40.1228 46.8952 42.1555 44.6669 43.5571C42.4297 44.9646 39.757 45.8654 37.096 45.9128C34.6692 45.9573 32.1417 45.2846 30.106 43.5186L26.7458 59.3181C28.9681 59.8515 31.2912 60.133 33.6766 60.133L33.6795 60.13Z" fill="#93250C"/>
</g>
<defs>
<filter id="filter0_d_22_160" x="0.0480347" y="0.867023" width="67.263" height="67.266" filterUnits="userSpaceOnUse" color-interpolation-filters="sRGB">
<feFlood flood-opacity="0" result="BackgroundImageFix"/>
<feColorMatrix in="SourceAlpha" type="matrix" values="0 0 0 0 0 0 0 0 0 0 0 0 0 0 0 0 0 0 127 0" result="hardAlpha"/>
<feOffset dy="4"/>
<feGaussianBlur stdDeviation="2"/>
<feComposite in2="hardAlpha" operator="out"/>
<feColorMatrix type="matrix" values="0 0 0 0 0 0 0 0 0 0 0 0 0 0 0 0 0 0 0.25 0"/>
<feBlend mode="normal" in2="BackgroundImageFix" result="effect1_dropShadow_22_160"/>
<feBlend mode="normal" in="SourceGraphic" in2="effect1_dropShadow_22_160" result="shape"/>
</filter>
</defs>
</svg>
