<svg width="53" height="49" viewBox="0 0 53 49" fill="none" xmlns="http://www.w3.org/2000/svg">
<g filter="url(#filter0_d_22_419)">
<path d="M25.0697 5.45581V1.36395C25.0697 1.00221 25.2217 0.655284 25.4924 0.399493C25.763 0.143702 26.1301 0 26.5129 0C26.8956 0 27.2627 0.143702 27.5334 0.399493C27.804 0.655284 27.9561 1.00221 27.9561 1.36395V5.45581C27.9561 5.81756 27.804 6.16448 27.5334 6.42027C27.2627 6.67607 26.8956 6.81977 26.5129 6.81977C26.1301 6.81977 25.763 6.67607 25.4924 6.42027C25.2217 6.16448 25.0697 5.81756 25.0697 5.45581ZM26.5129 9.54767C24.2294 9.54767 21.9971 10.1876 20.0985 11.3866C18.1998 12.5856 16.72 14.2898 15.8461 16.2836C14.9723 18.2774 14.7436 20.4714 15.1891 22.5881C15.6346 24.7047 16.7342 26.649 18.3489 28.175C19.9636 29.701 22.0208 30.7402 24.2604 31.1613C26.5001 31.5823 28.8215 31.3662 30.9312 30.5403C33.0409 29.7145 34.844 28.3159 36.1127 26.5215C37.3813 24.7271 38.0585 22.6174 38.0585 20.4593C38.0551 17.5663 36.8376 14.7927 34.6731 12.7471C32.5086 10.7015 29.5739 9.55083 26.5129 9.54767ZM13.9462 10.5127C14.217 10.7686 14.5843 10.9124 14.9673 10.9124C15.3502 10.9124 15.7175 10.7686 15.9883 10.5127C16.2591 10.2567 16.4113 9.90962 16.4113 9.54767C16.4113 9.18573 16.2591 8.83861 15.9883 8.58268L13.1019 5.85477C12.8311 5.59884 12.4638 5.45506 12.0809 5.45506C11.6979 5.45506 11.3306 5.59884 11.0598 5.85477C10.789 6.1107 10.6369 6.45782 10.6369 6.81977C10.6369 7.18171 10.789 7.52883 11.0598 7.78476L13.9462 10.5127ZM13.9462 30.4059L11.0598 33.1338C10.789 33.3898 10.6369 33.7369 10.6369 34.0988C10.6369 34.4608 10.789 34.8079 11.0598 35.0638C11.3306 35.3198 11.6979 35.4636 12.0809 35.4636C12.4638 35.4636 12.8311 35.3198 13.1019 35.0638L15.9883 32.3359C16.1224 32.2092 16.2288 32.0588 16.3013 31.8932C16.3739 31.7276 16.4113 31.5501 16.4113 31.3709C16.4113 31.1917 16.3739 31.0143 16.3013 30.8487C16.2288 30.6831 16.1224 30.5327 15.9883 30.4059C15.8542 30.2792 15.6951 30.1787 15.5199 30.1101C15.3447 30.0415 15.1569 30.0062 14.9673 30.0062C14.7776 30.0062 14.5899 30.0415 14.4147 30.1101C14.2395 30.1787 14.0803 30.2792 13.9462 30.4059ZM38.0585 10.9116C38.248 10.9118 38.4358 10.8766 38.611 10.8082C38.7862 10.7397 38.9454 10.6393 39.0795 10.5127L41.9659 7.78476C42.2367 7.52883 42.3889 7.18171 42.3889 6.81977C42.3889 6.45782 42.2367 6.1107 41.9659 5.85477C41.6951 5.59884 41.3278 5.45506 40.9449 5.45506C40.5619 5.45506 40.1946 5.59884 39.9238 5.85477L37.0374 8.58268C36.8353 8.77343 36.6977 9.01656 36.6419 9.28129C36.5861 9.54601 36.6147 9.82042 36.724 10.0698C36.8334 10.3191 37.0185 10.5322 37.2561 10.6821C37.4936 10.832 37.7729 10.9118 38.0585 10.9116ZM39.0795 30.4059C38.8087 30.15 38.4414 30.0062 38.0585 30.0062C37.6755 30.0062 37.3082 30.15 37.0374 30.4059C36.7666 30.6619 36.6145 31.009 36.6145 31.3709C36.6145 31.7329 36.7666 32.08 37.0374 32.3359L39.9238 35.0638C40.0579 35.1906 40.2171 35.2911 40.3923 35.3597C40.5675 35.4282 40.7552 35.4636 40.9449 35.4636C41.1345 35.4636 41.3223 35.4282 41.4975 35.3597C41.6726 35.2911 41.8318 35.1906 41.9659 35.0638C42.1 34.9371 42.2064 34.7867 42.2789 34.6211C42.3515 34.4555 42.3889 34.2781 42.3889 34.0988C42.3889 33.9196 42.3515 33.7422 42.2789 33.5766C42.2064 33.411 42.1 33.2606 41.9659 33.1338L39.0795 30.4059ZM12.0809 20.4593C12.0809 20.0976 11.9288 19.7506 11.6582 19.4948C11.3875 19.2391 11.0204 19.0953 10.6377 19.0953H6.30807C5.92531 19.0953 5.55822 19.2391 5.28757 19.4948C5.01692 19.7506 4.86487 20.0976 4.86487 20.4593C4.86487 20.821 5.01692 21.168 5.28757 21.4238C5.55822 21.6796 5.92531 21.8233 6.30807 21.8233H10.6377C11.0204 21.8233 11.3875 21.6796 11.6582 21.4238C11.9288 21.168 12.0809 20.821 12.0809 20.4593ZM26.5129 34.0988C26.1301 34.0988 25.763 34.2425 25.4924 34.4983C25.2217 34.7541 25.0697 35.101 25.0697 35.4628V39.5547C25.0697 39.9164 25.2217 40.2633 25.4924 40.5191C25.763 40.7749 26.1301 40.9186 26.5129 40.9186C26.8956 40.9186 27.2627 40.7749 27.5334 40.5191C27.804 40.2633 27.9561 39.9164 27.9561 39.5547V35.4628C27.9561 35.101 27.804 34.7541 27.5334 34.4983C27.2627 34.2425 26.8956 34.0988 26.5129 34.0988ZM46.7177 19.0953H42.3881C42.0053 19.0953 41.6382 19.2391 41.3676 19.4948C41.0969 19.7506 40.9449 20.0976 40.9449 20.4593C40.9449 20.821 41.0969 21.168 41.3676 21.4238C41.6382 21.6796 42.0053 21.8233 42.3881 21.8233H46.7177C47.1004 21.8233 47.4675 21.6796 47.7381 21.4238C48.0088 21.168 48.1609 20.821 48.1609 20.4593C48.1609 20.0976 48.0088 19.7506 47.7381 19.4948C47.4675 19.2391 47.1004 19.0953 46.7177 19.0953Z" fill="#FBFAFA"/>
</g>
<defs>
<filter id="filter0_d_22_419" x="0.864868" y="0" width="51.296" height="48.9186" filterUnits="userSpaceOnUse" color-interpolation-filters="sRGB">
<feFlood flood-opacity="0" result="BackgroundImageFix"/>
<feColorMatrix in="SourceAlpha" type="matrix" values="0 0 0 0 0 0 0 0 0 0 0 0 0 0 0 0 0 0 127 0" result="hardAlpha"/>
<feOffset dy="4"/>
<feGaussianBlur stdDeviation="2"/>
<feComposite in2="hardAlpha" operator="out"/>
<feColorMatrix type="matrix" values="0 0 0 0 0 0 0 0 0 0 0 0 0 0 0 0 0 0 0.25 0"/>
<feBlend mode="normal" in2="BackgroundImageFix" result="effect1_dropShadow_22_419"/>
<feBlend mode="normal" in="SourceGraphic" in2="effect1_dropShadow_22_419" result="shape"/>
</filter>
</defs>
</svg>
