<svg xmlns="http://www.w3.org/2000/svg" version="1.1" xmlns:xlink="http://www.w3.org/1999/xlink" xmlns:svgjs="http://svgjs.dev/svgjs" width="1500" height="272" viewBox="0 0 1500 272"><g transform="matrix(1,0,0,1,-0.9090909090911055,-0.974200353486367)"><svg viewBox="0 0 396 72" data-background-color="#ffffff" preserveAspectRatio="xMidYMid meet" height="272" width="1500" xmlns="http://www.w3.org/2000/svg" xmlns:xlink="http://www.w3.org/1999/xlink"><g id="tight-bounds" transform="matrix(1,0,0,1,0.24000000000003752,0.25787656415815263)"><svg viewBox="0 0 395.5199999999999 71.48424687168368" height="71.48424687168368" width="395.5199999999999"><g><svg viewBox="0 0 395.5199999999999 71.48424687168368" height="71.48424687168368" width="395.5199999999999"><g><svg viewBox="0 0 502.1284648759267 90.7521115101393" height="71.48424687168368" width="395.5199999999999"><g transform="matrix(1,0,0,1,106.60846487592669,14.243195761862356)"><svg viewBox="0 0 395.52 62.26571998641459" height="62.26571998641459" width="395.52"><g id="textblocktransform"><svg viewBox="0 0 395.52 62.26571998641459" height="62.26571998641459" width="395.52" id="textblock"><g><svg viewBox="0 0 395.52 33.58315408128609" height="33.58315408128609" width="395.52"><g transform="matrix(1,0,0,1,0,0)"><svg width="395.52" viewBox="4.7 -37 441.6 37.5" height="33.58315408128609" data-palette-color="#69443d"><path d="M6.25 0L6.25 0Q5.55 0 5.13-0.45 4.7-0.9 4.7-1.5L4.7-1.5 4.7-33.5Q4.7-34.1 5.15-34.55 5.6-35 6.2-35L6.2-35 24.4-35Q25.05-35 25.48-34.58 25.9-34.15 25.9-33.5L25.9-33.5Q25.9-32.9 25.48-32.48 25.05-32.05 24.4-32.05L24.4-32.05 7.55-32.05 7.75-32.35 7.75-19.05 7.5-19.5 22.15-19.5Q22.8-19.5 23.23-19.07 23.65-18.65 23.65-18.05L23.65-18.05Q23.65-17.4 23.23-17 22.8-16.6 22.15-16.6L22.15-16.6 7.4-16.6 7.75-17 7.75-1.5Q7.75-0.9 7.33-0.45 6.9 0 6.25 0ZM42.85 0.5L42.85 0.5Q39 0.5 36.05-1.15 33.1-2.8 31.45-5.75 29.8-8.7 29.8-12.65L29.8-12.65Q29.8-16.9 31.47-19.9 33.15-22.9 35.82-24.53 38.5-26.15 41.5-26.15L41.5-26.15Q43.7-26.15 45.77-25.38 47.85-24.6 49.45-23.08 51.05-21.55 52.05-19.35 53.05-17.15 53.1-14.25L53.1-14.25Q53.1-13.65 52.65-13.23 52.2-12.8 51.6-12.8L51.6-12.8 31.55-12.8 30.95-15.5 50.65-15.5 50-14.9 50-15.9Q49.75-18.25 48.45-19.9 47.15-21.55 45.32-22.4 43.5-23.25 41.5-23.25L41.5-23.25Q40-23.25 38.42-22.65 36.85-22.05 35.57-20.78 34.3-19.5 33.5-17.53 32.7-15.55 32.7-12.85L32.7-12.85Q32.7-9.9 33.9-7.5 35.1-5.1 37.35-3.7 39.6-2.3 42.8-2.3L42.8-2.3Q44.5-2.3 45.9-2.8 47.3-3.3 48.37-4.13 49.45-4.95 50.15-5.85L50.15-5.85Q50.7-6.3 51.2-6.3L51.2-6.3Q51.75-6.3 52.12-5.9 52.5-5.5 52.5-5L52.5-5Q52.5-4.4 52-3.95L52-3.95Q50.5-2.15 48.1-0.83 45.7 0.5 42.85 0.5ZM57.64-25.45L57.64-25.45 69.3-25.45Q69.89-25.45 70.3-25.03 70.69-24.6 70.69-24L70.69-24Q70.69-23.45 70.3-23.05 69.89-22.65 69.3-22.65L69.3-22.65 57.64-22.65Q57.05-22.65 56.62-23.08 56.2-23.5 56.2-24.05L56.2-24.05Q56.2-24.65 56.62-25.05 57.05-25.45 57.64-25.45ZM62.8-32.5L62.8-32.5Q63.45-32.5 63.87-32.05 64.3-31.6 64.3-31L64.3-31 64.3-5.9Q64.3-4.5 64.67-3.8 65.05-3.1 65.64-2.88 66.25-2.65 66.84-2.65L66.84-2.65Q67.25-2.65 67.57-2.78 67.89-2.9 68.3-2.9L68.3-2.9Q68.75-2.9 69.07-2.55 69.39-2.2 69.39-1.65L69.39-1.65Q69.39-0.95 68.59-0.48 67.8 0 66.69 0L66.69 0Q66.25 0 65.34-0.08 64.44-0.15 63.49-0.63 62.55-1.1 61.92-2.3 61.3-3.5 61.3-5.75L61.3-5.75 61.3-31Q61.3-31.6 61.72-32.05 62.14-32.5 62.8-32.5ZM74.59-25.45L74.59-25.45 86.24-25.45Q86.84-25.45 87.24-25.03 87.64-24.6 87.64-24L87.64-24Q87.64-23.45 87.24-23.05 86.84-22.65 86.24-22.65L86.24-22.65 74.59-22.65Q73.99-22.65 73.57-23.08 73.14-23.5 73.14-24.05L73.14-24.05Q73.14-24.65 73.57-25.05 73.99-25.45 74.59-25.45ZM79.74-32.5L79.74-32.5Q80.39-32.5 80.82-32.05 81.24-31.6 81.24-31L81.24-31 81.24-5.9Q81.24-4.5 81.62-3.8 81.99-3.1 82.59-2.88 83.19-2.65 83.79-2.65L83.79-2.65Q84.19-2.65 84.52-2.78 84.84-2.9 85.24-2.9L85.24-2.9Q85.69-2.9 86.02-2.55 86.34-2.2 86.34-1.65L86.34-1.65Q86.34-0.95 85.54-0.48 84.74 0 83.64 0L83.64 0Q83.19 0 82.29-0.08 81.39-0.15 80.44-0.63 79.49-1.1 78.87-2.3 78.24-3.5 78.24-5.75L78.24-5.75 78.24-31Q78.24-31.6 78.67-32.05 79.09-32.5 79.74-32.5ZM113.94-25.55L113.94-25.55Q114.59-25.55 115.02-25.1 115.44-24.65 115.44-24L115.44-24 115.44-1.5Q115.44-0.9 114.99-0.45 114.54 0 113.94 0L113.94 0Q113.24 0 112.84-0.45 112.44-0.9 112.44-1.5L112.44-1.5 112.44-7.45 113.29-7.85Q113.29-6.45 112.52-5 111.74-3.55 110.39-2.3 109.04-1.05 107.22-0.28 105.39 0.5 103.24 0.5L103.24 0.5Q99.89 0.5 97.22-1.25 94.54-3 93.02-6.05 91.49-9.1 91.49-12.9L91.49-12.9Q91.49-16.8 93.04-19.78 94.59-22.75 97.24-24.45 99.89-26.15 103.19-26.15L103.19-26.15Q105.34-26.15 107.22-25.4 109.09-24.65 110.49-23.35 111.89-22.05 112.69-20.38 113.49-18.7 113.49-16.9L113.49-16.9 112.44-17.65 112.44-24Q112.44-24.65 112.84-25.1 113.24-25.55 113.94-25.55ZM103.54-2.3L103.54-2.3Q106.19-2.3 108.24-3.68 110.29-5.05 111.47-7.48 112.64-9.9 112.64-12.9L112.64-12.9Q112.64-15.85 111.47-18.2 110.29-20.55 108.24-21.95 106.19-23.35 103.54-23.35L103.54-23.35Q100.94-23.35 98.87-22 96.79-20.65 95.62-18.3 94.44-15.95 94.44-12.9L94.44-12.9Q94.44-9.9 95.59-7.48 96.74-5.05 98.82-3.68 100.89-2.3 103.54-2.3ZM157.69-37L157.69-37Q158.34-37 158.76-36.58 159.19-36.15 159.19-35.5L159.19-35.5 159.19-1.5Q159.19-0.9 158.74-0.45 158.29 0 157.69 0L157.69 0Q156.99 0 156.59-0.45 156.19-0.9 156.19-1.5L156.19-1.5 156.19-7.45 157.04-8.15Q157.04-6.75 156.29-5.23 155.54-3.7 154.16-2.4 152.79-1.1 150.96-0.3 149.14 0.5 146.99 0.5L146.99 0.5Q143.69 0.5 141.01-1.25 138.34-3 136.79-6 135.24-9 135.24-12.85L135.24-12.85Q135.24-16.65 136.79-19.68 138.34-22.7 140.99-24.43 143.64-26.15 146.94-26.15L146.94-26.15Q149.04-26.15 150.89-25.4 152.74-24.65 154.16-23.35 155.59-22.05 156.41-20.38 157.24-18.7 157.24-16.9L157.24-16.9 156.19-17.65 156.19-35.5Q156.19-36.1 156.59-36.55 156.99-37 157.69-37ZM147.29-2.3L147.29-2.3Q149.94-2.3 151.99-3.68 154.04-5.05 155.21-7.43 156.39-9.8 156.39-12.85L156.39-12.85Q156.39-15.85 155.21-18.23 154.04-20.6 151.99-21.98 149.94-23.35 147.29-23.35L147.29-23.35Q144.69-23.35 142.61-21.98 140.54-20.6 139.36-18.23 138.19-15.85 138.19-12.85L138.19-12.85Q138.19-9.85 139.36-7.45 140.54-5.05 142.61-3.68 144.69-2.3 147.29-2.3ZM169.93-24.5L169.93-1.5Q169.93-0.9 169.48-0.45 169.03 0 168.43 0L168.43 0Q167.78 0 167.36-0.45 166.93-0.9 166.93-1.5L166.93-1.5 166.93-24.5Q166.93-25.1 167.36-25.55 167.78-26 168.43-26L168.43-26Q169.08-26 169.51-25.55 169.93-25.1 169.93-24.5L169.93-24.5ZM168.43-29.35L168.43-29.35Q167.38-29.35 166.86-29.83 166.33-30.3 166.33-31.2L166.33-31.2 166.33-31.7Q166.33-32.6 166.91-33.08 167.48-33.55 168.48-33.55L168.48-33.55Q169.43-33.55 169.96-33.08 170.48-32.6 170.48-31.7L170.48-31.7 170.48-31.2Q170.48-30.3 169.96-29.83 169.43-29.35 168.43-29.35ZM193.63-35L206.88-35Q211.08-35 213.45-32.73 215.83-30.45 215.83-26.4L215.83-26.4Q215.83-24.3 214.93-22.4 214.03-20.5 212.28-19.33 210.53-18.15 207.93-18L207.93-18 207.73-19Q209.58-19 211.35-18.48 213.13-17.95 214.53-16.8 215.93-15.65 216.78-13.93 217.63-12.2 217.63-9.75L217.63-9.75Q217.63-7.15 216.75-5.28 215.88-3.4 214.4-2.25 212.93-1.1 211.03-0.55 209.13 0 207.08 0L207.08 0 193.63 0Q193.03 0 192.58-0.45 192.13-0.9 192.13-1.5L192.13-1.5 192.13-33.5Q192.13-34.1 192.58-34.55 193.03-35 193.63-35L193.63-35ZM206.48-32.05L206.48-32.05 194.73-32.05 195.33-32.95 195.33-18.8 194.78-19.55 206.48-19.55Q209.08-19.6 210.85-21.25 212.63-22.9 212.63-26.15L212.63-26.15Q212.63-28.9 211.03-30.48 209.43-32.05 206.48-32.05ZM206.83-16.55L206.83-16.55 195.08-16.55 195.33-16.85 195.33-2.5 195.03-2.95 206.93-2.95Q210.13-2.95 212.28-4.58 214.43-6.2 214.43-9.75L214.43-9.75Q214.43-12.25 213.38-13.75 212.33-15.25 210.58-15.9 208.83-16.55 206.83-16.55ZM235.23 0.5L235.23 0.5Q231.38 0.5 228.43-1.15 225.48-2.8 223.83-5.75 222.18-8.7 222.18-12.65L222.18-12.65Q222.18-16.9 223.85-19.9 225.53-22.9 228.2-24.53 230.88-26.15 233.88-26.15L233.88-26.15Q236.08-26.15 238.15-25.38 240.23-24.6 241.83-23.08 243.43-21.55 244.43-19.35 245.43-17.15 245.48-14.25L245.48-14.25Q245.48-13.65 245.03-13.23 244.58-12.8 243.98-12.8L243.98-12.8 223.93-12.8 223.33-15.5 243.03-15.5 242.38-14.9 242.38-15.9Q242.13-18.25 240.83-19.9 239.53-21.55 237.7-22.4 235.88-23.25 233.88-23.25L233.88-23.25Q232.38-23.25 230.8-22.65 229.23-22.05 227.95-20.78 226.68-19.5 225.88-17.53 225.08-15.55 225.08-12.85L225.08-12.85Q225.08-9.9 226.28-7.5 227.48-5.1 229.73-3.7 231.98-2.3 235.18-2.3L235.18-2.3Q236.88-2.3 238.28-2.8 239.68-3.3 240.75-4.13 241.83-4.95 242.53-5.85L242.53-5.85Q243.08-6.3 243.58-6.3L243.58-6.3Q244.13-6.3 244.5-5.9 244.88-5.5 244.88-5L244.88-5Q244.88-4.4 244.38-3.95L244.38-3.95Q242.88-2.15 240.48-0.83 238.08 0.5 235.23 0.5ZM272.62-25.55L272.62-25.55Q273.27-25.55 273.7-25.1 274.12-24.65 274.12-24L274.12-24 274.12-1.5Q274.12-0.9 273.67-0.45 273.22 0 272.62 0L272.62 0Q271.92 0 271.52-0.45 271.12-0.9 271.12-1.5L271.12-1.5 271.12-7.45 271.97-7.85Q271.97-6.45 271.2-5 270.42-3.55 269.07-2.3 267.72-1.05 265.9-0.28 264.07 0.5 261.92 0.5L261.92 0.5Q258.57 0.5 255.9-1.25 253.22-3 251.7-6.05 250.17-9.1 250.17-12.9L250.17-12.9Q250.17-16.8 251.72-19.78 253.27-22.75 255.92-24.45 258.57-26.15 261.87-26.15L261.87-26.15Q264.02-26.15 265.9-25.4 267.77-24.65 269.17-23.35 270.57-22.05 271.37-20.38 272.17-18.7 272.17-16.9L272.17-16.9 271.12-17.65 271.12-24Q271.12-24.65 271.52-25.1 271.92-25.55 272.62-25.55ZM262.22-2.3L262.22-2.3Q264.87-2.3 266.92-3.68 268.97-5.05 270.15-7.48 271.32-9.9 271.32-12.9L271.32-12.9Q271.32-15.85 270.15-18.2 268.97-20.55 266.92-21.95 264.87-23.35 262.22-23.35L262.22-23.35Q259.62-23.35 257.55-22 255.47-20.65 254.3-18.3 253.12-15.95 253.12-12.9L253.12-12.9Q253.12-9.9 254.27-7.48 255.42-5.05 257.5-3.68 259.57-2.3 262.22-2.3ZM280.32-25.45L280.32-25.45 291.97-25.45Q292.57-25.45 292.97-25.03 293.37-24.6 293.37-24L293.37-24Q293.37-23.45 292.97-23.05 292.57-22.65 291.97-22.65L291.97-22.65 280.32-22.65Q279.72-22.65 279.3-23.08 278.87-23.5 278.87-24.05L278.87-24.05Q278.87-24.65 279.3-25.05 279.72-25.45 280.32-25.45ZM285.47-32.5L285.47-32.5Q286.12-32.5 286.55-32.05 286.97-31.6 286.97-31L286.97-31 286.97-5.9Q286.97-4.5 287.35-3.8 287.72-3.1 288.32-2.88 288.92-2.65 289.52-2.65L289.52-2.65Q289.92-2.65 290.25-2.78 290.57-2.9 290.97-2.9L290.97-2.9Q291.42-2.9 291.75-2.55 292.07-2.2 292.07-1.65L292.07-1.65Q292.07-0.95 291.27-0.48 290.47 0 289.37 0L289.37 0Q288.92 0 288.02-0.08 287.12-0.15 286.17-0.63 285.22-1.1 284.6-2.3 283.97-3.5 283.97-5.75L283.97-5.75 283.97-31Q283.97-31.6 284.4-32.05 284.82-32.5 285.47-32.5ZM301.82-24.5L301.82-1.5Q301.82-0.9 301.37-0.45 300.92 0 300.32 0L300.32 0Q299.67 0 299.24-0.45 298.82-0.9 298.82-1.5L298.82-1.5 298.82-24.5Q298.82-25.1 299.24-25.55 299.67-26 300.32-26L300.32-26Q300.97-26 301.39-25.55 301.82-25.1 301.82-24.5L301.82-24.5ZM300.32-29.35L300.32-29.35Q299.27-29.35 298.74-29.83 298.22-30.3 298.22-31.2L298.22-31.2 298.22-31.7Q298.22-32.6 298.79-33.08 299.37-33.55 300.37-33.55L300.37-33.55Q301.32-33.55 301.84-33.08 302.37-32.6 302.37-31.7L302.37-31.7 302.37-31.2Q302.37-30.3 301.84-29.83 301.32-29.35 300.32-29.35ZM307.97-25.45L307.97-25.45 319.62-25.45Q320.22-25.45 320.62-25.03 321.02-24.6 321.02-24L321.02-24Q321.02-23.45 320.62-23.05 320.22-22.65 319.62-22.65L319.62-22.65 307.97-22.65Q307.37-22.65 306.94-23.08 306.52-23.5 306.52-24.05L306.52-24.05Q306.52-24.65 306.94-25.05 307.37-25.45 307.97-25.45ZM313.12-32.5L313.12-32.5Q313.77-32.5 314.19-32.05 314.62-31.6 314.62-31L314.62-31 314.62-5.9Q314.62-4.5 314.99-3.8 315.37-3.1 315.97-2.88 316.56-2.65 317.17-2.65L317.17-2.65Q317.56-2.65 317.89-2.78 318.22-2.9 318.62-2.9L318.62-2.9Q319.06-2.9 319.39-2.55 319.72-2.2 319.72-1.65L319.72-1.65Q319.72-0.95 318.92-0.48 318.12 0 317.02 0L317.02 0Q316.56 0 315.67-0.08 314.77-0.15 313.81-0.63 312.87-1.1 312.24-2.3 311.62-3.5 311.62-5.75L311.62-5.75 311.62-31Q311.62-31.6 312.04-32.05 312.47-32.5 313.12-32.5ZM345.66-25.4L345.66-25.4Q346.31-25.4 346.74-24.95 347.16-24.5 347.16-23.9L347.16-23.9 347.16-9.8Q347.16-4.85 344.36-2.25 341.56 0.35 336.81 0.35L336.81 0.35Q332.11 0.35 329.34-2.25 326.56-4.85 326.56-9.8L326.56-9.8 326.56-23.9Q326.56-24.5 326.99-24.95 327.41-25.4 328.06-25.4L328.06-25.4Q328.71-25.4 329.14-24.95 329.56-24.5 329.56-23.9L329.56-23.9 329.56-9.8Q329.56-6.2 331.49-4.33 333.41-2.45 336.81-2.45L336.81-2.45Q340.26-2.45 342.21-4.33 344.16-6.2 344.16-9.8L344.16-9.8 344.16-23.9Q344.16-24.5 344.56-24.95 344.96-25.4 345.66-25.4ZM375.76-37L375.76-37Q376.41-37 376.83-36.58 377.26-36.15 377.26-35.5L377.26-35.5 377.26-1.5Q377.26-0.9 376.81-0.45 376.36 0 375.76 0L375.76 0Q375.06 0 374.66-0.45 374.26-0.9 374.26-1.5L374.26-1.5 374.26-7.45 375.11-8.15Q375.11-6.75 374.36-5.23 373.61-3.7 372.24-2.4 370.86-1.1 369.04-0.3 367.21 0.5 365.06 0.5L365.06 0.5Q361.76 0.5 359.08-1.25 356.41-3 354.86-6 353.31-9 353.31-12.85L353.31-12.85Q353.31-16.65 354.86-19.68 356.41-22.7 359.06-24.43 361.71-26.15 365.01-26.15L365.01-26.15Q367.11-26.15 368.96-25.4 370.81-24.65 372.24-23.35 373.66-22.05 374.49-20.38 375.31-18.7 375.31-16.9L375.31-16.9 374.26-17.65 374.26-35.5Q374.26-36.1 374.66-36.55 375.06-37 375.76-37ZM365.36-2.3L365.36-2.3Q368.01-2.3 370.06-3.68 372.11-5.05 373.29-7.43 374.46-9.8 374.46-12.85L374.46-12.85Q374.46-15.85 373.29-18.23 372.11-20.6 370.06-21.98 368.01-23.35 365.36-23.35L365.36-23.35Q362.76-23.35 360.69-21.98 358.61-20.6 357.44-18.23 356.26-15.85 356.26-12.85L356.26-12.85Q356.26-9.85 357.44-7.45 358.61-5.05 360.69-3.68 362.76-2.3 365.36-2.3ZM388.01-24.5L388.01-1.5Q388.01-0.9 387.56-0.45 387.11 0 386.51 0L386.51 0Q385.86 0 385.43-0.45 385.01-0.9 385.01-1.5L385.01-1.5 385.01-24.5Q385.01-25.1 385.43-25.55 385.86-26 386.51-26L386.51-26Q387.16-26 387.58-25.55 388.01-25.1 388.01-24.5L388.01-24.5ZM386.51-29.35L386.51-29.35Q385.46-29.35 384.93-29.83 384.41-30.3 384.41-31.2L384.41-31.2 384.41-31.7Q384.41-32.6 384.98-33.08 385.56-33.55 386.56-33.55L386.56-33.55Q387.51-33.55 388.03-33.08 388.56-32.6 388.56-31.7L388.56-31.7 388.56-31.2Q388.56-30.3 388.03-29.83 387.51-29.35 386.51-29.35ZM407.86-26.15L407.86-26.15Q411.16-26.15 413.13-24.83 415.11-23.5 415.98-21.23 416.86-18.95 416.86-16.2L416.86-16.2 416.86-1.5Q416.86-0.9 416.41-0.45 415.96 0 415.36 0L415.36 0Q414.66 0 414.25-0.45 413.86-0.9 413.86-1.5L413.86-1.5 413.86-16.05Q413.86-18.05 413.21-19.7 412.56-21.35 411.08-22.35 409.61-23.35 407.21-23.35L407.21-23.35Q405.06-23.35 403.13-22.35 401.21-21.35 400-19.7 398.81-18.05 398.81-16.05L398.81-16.05 398.81-1.5Q398.81-0.9 398.36-0.45 397.91 0 397.31 0L397.31 0Q396.61 0 396.21-0.45 395.81-0.9 395.81-1.5L395.81-1.5 395.81-23.9Q395.81-24.5 396.23-24.95 396.66-25.4 397.31-25.4L397.31-25.4Q397.96-25.4 398.38-24.95 398.81-24.5 398.81-23.9L398.81-23.9 398.81-19.7 397.66-17.9Q397.75-19.5 398.68-20.98 399.61-22.45 401.06-23.63 402.5-24.8 404.28-25.48 406.06-26.15 407.86-26.15ZM436.05 0.5L436.05 0.5Q432.2 0.5 429.25-1.15 426.3-2.8 424.65-5.75 423-8.7 423-12.65L423-12.65Q423-16.9 424.68-19.9 426.35-22.9 429.03-24.53 431.7-26.15 434.7-26.15L434.7-26.15Q436.9-26.15 438.98-25.38 441.05-24.6 442.65-23.08 444.25-21.55 445.25-19.35 446.25-17.15 446.3-14.25L446.3-14.25Q446.3-13.65 445.85-13.23 445.4-12.8 444.8-12.8L444.8-12.8 424.75-12.8 424.15-15.5 443.85-15.5 443.2-14.9 443.2-15.9Q442.95-18.25 441.65-19.9 440.35-21.55 438.53-22.4 436.7-23.25 434.7-23.25L434.7-23.25Q433.2-23.25 431.63-22.65 430.05-22.05 428.78-20.78 427.5-19.5 426.7-17.53 425.9-15.55 425.9-12.85L425.9-12.85Q425.9-9.9 427.1-7.5 428.3-5.1 430.55-3.7 432.8-2.3 436-2.3L436-2.3Q437.7-2.3 439.1-2.8 440.5-3.3 441.58-4.13 442.65-4.95 443.35-5.85L443.35-5.85Q443.9-6.3 444.4-6.3L444.4-6.3Q444.95-6.3 445.33-5.9 445.7-5.5 445.7-5L445.7-5Q445.7-4.4 445.2-3.95L445.2-3.95Q443.7-2.15 441.3-0.83 438.9 0.5 436.05 0.5Z" opacity="1" transform="matrix(1,0,0,1,0,0)" fill="#69443d" class="wordmark-text-0" data-fill-palette-color="primary" id="text-0"></path></svg></g></svg></g><g transform="matrix(1,0,0,1,85.73045647487297,41.51133076417978)"><svg viewBox="0 0 224.05908705025405 20.754389222234803" height="20.754389222234803" width="224.05908705025405"><g transform="matrix(1,0,0,1,0,0)"><svg width="224.05908705025405" viewBox="0.95 -37 507.34000000000003 47" height="20.754389222234803" data-palette-color="#6b9f64"><path d="M25.55-35.2L25.55-35.2Q26.2-35.2 26.63-34.73 27.05-34.25 27.05-33.7L27.05-33.7Q27.05-33.45 26.98-33.23 26.9-33 26.75-32.75L26.75-32.75 15-16.6 15.6-18.55 15.6-1.5Q15.6-0.9 15.15-0.45 14.7 0 14.05 0L14.05 0Q13.4 0 12.98-0.45 12.55-0.9 12.55-1.5L12.55-1.5 12.55-18.2 12.8-17 1.35-32.65Q1.15-32.9 1.05-33.18 0.95-33.45 0.95-33.7L0.95-33.7Q0.95-34.35 1.48-34.77 2-35.2 2.55-35.2L2.55-35.2Q3.3-35.2 3.8-34.5L3.8-34.5 14.55-19.85 13.8-19.95 24.25-34.5Q24.75-35.2 25.55-35.2ZM53.45-12.8L53.45-12.8Q53.45-9 51.77-5.98 50.1-2.95 47.25-1.23 44.4 0.5 40.8 0.5L40.8 0.5Q37.25 0.5 34.37-1.23 31.5-2.95 29.82-5.98 28.15-9 28.15-12.8L28.15-12.8Q28.15-16.65 29.82-19.65 31.5-22.65 34.37-24.4 37.25-26.15 40.8-26.15L40.8-26.15Q44.4-26.15 47.25-24.4 50.1-22.65 51.77-19.65 53.45-16.65 53.45-12.8ZM50.45-12.8L50.45-12.8Q50.45-15.85 49.2-18.23 47.95-20.6 45.77-21.98 43.6-23.35 40.8-23.35L40.8-23.35Q38.05-23.35 35.87-21.98 33.7-20.6 32.42-18.23 31.15-15.85 31.15-12.8L31.15-12.8Q31.15-9.75 32.42-7.4 33.7-5.05 35.87-3.68 38.05-2.3 40.8-2.3L40.8-2.3Q43.6-2.3 45.77-3.68 47.95-5.05 49.2-7.4 50.45-9.75 50.45-12.8ZM78.7-25.4L78.7-25.4Q79.34-25.4 79.77-24.95 80.2-24.5 80.2-23.9L80.2-23.9 80.2-9.8Q80.2-4.85 77.4-2.25 74.59 0.35 69.84 0.35L69.84 0.35Q65.15 0.35 62.37-2.25 59.6-4.85 59.6-9.8L59.6-9.8 59.6-23.9Q59.6-24.5 60.02-24.95 60.45-25.4 61.1-25.4L61.1-25.4Q61.75-25.4 62.17-24.95 62.6-24.5 62.6-23.9L62.6-23.9 62.6-9.8Q62.6-6.2 64.52-4.33 66.45-2.45 69.84-2.45L69.84-2.45Q73.3-2.45 75.25-4.33 77.2-6.2 77.2-9.8L77.2-9.8 77.2-23.9Q77.2-24.5 77.59-24.95 78-25.4 78.7-25.4ZM86.29-23.05L87.59-33.7Q87.74-35 89.04-35L89.04-35 90.69-35Q91.34-34.95 91.52-34.58 91.69-34.2 91.54-33.6L91.54-33.6 88.34-22.8Q88.04-21.75 86.94-21.75L86.94-21.75Q86.14-21.75 86.29-23.05L86.29-23.05ZM118.44-37L118.44-37Q119.09-37 119.52-36.58 119.94-36.15 119.94-35.5L119.94-35.5 119.94-1.5Q119.94-0.9 119.49-0.45 119.04 0 118.44 0L118.44 0Q117.74 0 117.34-0.45 116.94-0.9 116.94-1.5L116.94-1.5 116.94-7.45 117.79-8.15Q117.79-6.75 117.04-5.23 116.29-3.7 114.92-2.4 113.54-1.1 111.72-0.3 109.89 0.5 107.74 0.5L107.74 0.5Q104.44 0.5 101.77-1.25 99.09-3 97.54-6 95.99-9 95.99-12.85L95.99-12.85Q95.99-16.65 97.54-19.68 99.09-22.7 101.74-24.43 104.39-26.15 107.69-26.15L107.69-26.15Q109.79-26.15 111.64-25.4 113.49-24.65 114.92-23.35 116.34-22.05 117.17-20.38 117.99-18.7 117.99-16.9L117.99-16.9 116.94-17.65 116.94-35.5Q116.94-36.1 117.34-36.55 117.74-37 118.44-37ZM108.04-2.3L108.04-2.3Q110.69-2.3 112.74-3.68 114.79-5.05 115.97-7.43 117.14-9.8 117.14-12.85L117.14-12.85Q117.14-15.85 115.97-18.23 114.79-20.6 112.74-21.98 110.69-23.35 108.04-23.35L108.04-23.35Q105.44-23.35 103.37-21.98 101.29-20.6 100.12-18.23 98.94-15.85 98.94-12.85L98.94-12.85Q98.94-9.85 100.12-7.45 101.29-5.05 103.37-3.68 105.44-2.3 108.04-2.3ZM143.24 0L143.24 0Q142.59 0 142.16-0.45 141.74-0.9 141.74-1.5L141.74-1.5 141.74-35.5Q141.74-36.1 142.16-36.55 142.59-37 143.24-37L143.24-37Q143.89-37 144.31-36.55 144.74-36.1 144.74-35.5L144.74-35.5 144.74-1.5Q144.74-0.9 144.31-0.45 143.89 0 143.24 0ZM160.24-25.65L160.24-25.65Q160.79-25.65 161.24-25.18 161.69-24.7 161.69-24.15L161.69-24.15Q161.69-23.5 161.14-23L161.14-23 144.34-8.7 144.19-12.25 159.19-25.15Q159.64-25.65 160.24-25.65ZM160.64 0L160.64 0Q159.99 0 159.54-0.55L159.54-0.55 148.14-12.65 150.39-14.7 161.69-2.65Q162.14-2.15 162.14-1.5L162.14-1.5Q162.14-0.8 161.59-0.4 161.04 0 160.64 0ZM171.08-24.5L171.08-1.5Q171.08-0.9 170.63-0.45 170.18 0 169.58 0L169.58 0Q168.93 0 168.51-0.45 168.08-0.9 168.08-1.5L168.08-1.5 168.08-24.5Q168.08-25.1 168.51-25.55 168.93-26 169.58-26L169.58-26Q170.23-26 170.66-25.55 171.08-25.1 171.08-24.5L171.08-24.5ZM169.58-29.35L169.58-29.35Q168.53-29.35 168.01-29.83 167.48-30.3 167.48-31.2L167.48-31.2 167.48-31.7Q167.48-32.6 168.06-33.08 168.63-33.55 169.63-33.55L169.63-33.55Q170.58-33.55 171.11-33.08 171.63-32.6 171.63-31.7L171.63-31.7 171.63-31.2Q171.63-30.3 171.11-29.83 170.58-29.35 169.58-29.35ZM182.18-35.5L182.18-1.5Q182.18-0.9 181.73-0.45 181.28 0 180.68 0L180.68 0Q180.03 0 179.61-0.45 179.18-0.9 179.18-1.5L179.18-1.5 179.18-35.5Q179.18-36.1 179.63-36.55 180.08-37 180.68-37L180.68-37Q181.33-37 181.75-36.55 182.18-36.1 182.18-35.5L182.18-35.5ZM193.68-35.5L193.68-1.5Q193.68-0.9 193.23-0.45 192.78 0 192.18 0L192.18 0Q191.53 0 191.1-0.45 190.68-0.9 190.68-1.5L190.68-1.5 190.68-35.5Q190.68-36.1 191.13-36.55 191.58-37 192.18-37L192.18-37Q192.83-37 193.25-36.55 193.68-36.1 193.68-35.5L193.68-35.5ZM224.77-36.8L224.77-36.8Q225.52-36.8 226.4-36.65 227.27-36.5 227.92-36.13 228.57-35.75 228.57-35L228.57-35Q228.57-34.45 228.17-34.02 227.77-33.6 227.27-33.6L227.27-33.6Q226.77-33.6 226.02-33.88 225.27-34.15 224.42-34.15L224.42-34.15Q223.37-34.15 222.62-33.68 221.87-33.2 221.47-32.33 221.07-31.45 221.07-30.2L221.07-30.2 221.07-1.5Q221.07-0.9 220.65-0.45 220.22 0 219.57 0L219.57 0Q218.92 0 218.5-0.45 218.07-0.9 218.07-1.5L218.07-1.5 218.07-30.2Q218.07-33.4 219.95-35.1 221.82-36.8 224.77-36.8ZM214.42-25.05L226.67-25.05Q227.27-25.05 227.67-24.65 228.07-24.25 228.07-23.65L228.07-23.65Q228.07-23.05 227.67-22.65 227.27-22.25 226.67-22.25L226.67-22.25 214.42-22.25Q213.87-22.25 213.45-22.68 213.02-23.1 213.02-23.65L213.02-23.65Q213.02-24.3 213.45-24.68 213.87-25.05 214.42-25.05L214.42-25.05ZM256.77-12.8L256.77-12.8Q256.77-9 255.1-5.98 253.42-2.95 250.57-1.23 247.72 0.5 244.12 0.5L244.12 0.5Q240.57 0.5 237.7-1.23 234.82-2.95 233.15-5.98 231.47-9 231.47-12.8L231.47-12.8Q231.47-16.65 233.15-19.65 234.82-22.65 237.7-24.4 240.57-26.15 244.12-26.15L244.12-26.15Q247.72-26.15 250.57-24.4 253.42-22.65 255.1-19.65 256.77-16.65 256.77-12.8ZM253.77-12.8L253.77-12.8Q253.77-15.85 252.52-18.23 251.27-20.6 249.1-21.98 246.92-23.35 244.12-23.35L244.12-23.35Q241.37-23.35 239.2-21.98 237.02-20.6 235.75-18.23 234.47-15.85 234.47-12.8L234.47-12.8Q234.47-9.75 235.75-7.4 237.02-5.05 239.2-3.68 241.37-2.3 244.12-2.3L244.12-2.3Q246.92-2.3 249.1-3.68 251.27-5.05 252.52-7.4 253.77-9.75 253.77-12.8ZM264.42 0L264.42 0Q263.72 0 263.32-0.45 262.92-0.9 262.92-1.5L262.92-1.5 262.92-23.9Q262.92-24.5 263.34-24.95 263.77-25.4 264.42-25.4L264.42-25.4Q265.07-25.4 265.49-24.95 265.92-24.5 265.92-23.9L265.92-23.9 265.92-16.4 265.17-16.25Q265.32-18 266.04-19.73 266.77-21.45 268.02-22.9 269.27-24.35 270.99-25.25 272.72-26.15 274.87-26.15L274.87-26.15Q275.77-26.15 276.62-25.78 277.47-25.4 277.47-24.55L277.47-24.55Q277.47-23.8 277.07-23.4 276.67-23 276.12-23L276.12-23Q275.67-23 275.14-23.25 274.62-23.5 273.77-23.5L273.77-23.5Q272.37-23.5 270.97-22.68 269.57-21.85 268.42-20.45 267.27-19.05 266.59-17.32 265.92-15.6 265.92-13.85L265.92-13.85 265.92-1.5Q265.92-0.9 265.47-0.45 265.02 0 264.42 0ZM319.41-12.8L319.41-12.8Q319.41-9 317.74-5.98 316.06-2.95 313.21-1.23 310.36 0.5 306.76 0.5L306.76 0.5Q303.21 0.5 300.34-1.23 297.46-2.95 295.79-5.98 294.11-9 294.11-12.8L294.11-12.8Q294.11-16.65 295.79-19.65 297.46-22.65 300.34-24.4 303.21-26.15 306.76-26.15L306.76-26.15Q310.36-26.15 313.21-24.4 316.06-22.65 317.74-19.65 319.41-16.65 319.41-12.8ZM316.41-12.8L316.41-12.8Q316.41-15.85 315.16-18.23 313.91-20.6 311.74-21.98 309.56-23.35 306.76-23.35L306.76-23.35Q304.01-23.35 301.84-21.98 299.66-20.6 298.39-18.23 297.11-15.85 297.11-12.8L297.11-12.8Q297.11-9.75 298.39-7.4 299.66-5.05 301.84-3.68 304.01-2.3 306.76-2.3L306.76-2.3Q309.56-2.3 311.74-3.68 313.91-5.05 315.16-7.4 316.41-9.75 316.41-12.8ZM344.66-25.4L344.66-25.4Q345.31-25.4 345.74-24.95 346.16-24.5 346.16-23.9L346.16-23.9 346.16-9.8Q346.16-4.85 343.36-2.25 340.56 0.35 335.81 0.35L335.81 0.35Q331.11 0.35 328.34-2.25 325.56-4.85 325.56-9.8L325.56-9.8 325.56-23.9Q325.56-24.5 325.99-24.95 326.41-25.4 327.06-25.4L327.06-25.4Q327.71-25.4 328.13-24.95 328.56-24.5 328.56-23.9L328.56-23.9 328.56-9.8Q328.56-6.2 330.49-4.33 332.41-2.45 335.81-2.45L335.81-2.45Q339.26-2.45 341.21-4.33 343.16-6.2 343.16-9.8L343.16-9.8 343.16-23.9Q343.16-24.5 343.56-24.95 343.96-25.4 344.66-25.4ZM355.51 0L355.51 0Q354.81 0 354.41-0.45 354.01-0.9 354.01-1.5L354.01-1.5 354.01-23.9Q354.01-24.5 354.43-24.95 354.86-25.4 355.51-25.4L355.51-25.4Q356.16-25.4 356.58-24.95 357.01-24.5 357.01-23.9L357.01-23.9 357.01-16.4 356.26-16.25Q356.41-18 357.13-19.73 357.86-21.45 359.11-22.9 360.36-24.35 362.08-25.25 363.81-26.15 365.96-26.15L365.96-26.15Q366.86-26.15 367.71-25.78 368.56-25.4 368.56-24.55L368.56-24.55Q368.56-23.8 368.16-23.4 367.76-23 367.21-23L367.21-23Q366.76-23 366.23-23.25 365.71-23.5 364.86-23.5L364.86-23.5Q363.46-23.5 362.06-22.68 360.66-21.85 359.51-20.45 358.36-19.05 357.68-17.32 357.01-15.6 357.01-13.85L357.01-13.85 357.01-1.5Q357.01-0.9 356.56-0.45 356.11 0 355.51 0ZM399.05-25.75L399.05-25.75Q402.45-25.75 405.08-24.08 407.7-22.4 409.25-19.48 410.8-16.55 410.8-12.75L410.8-12.75Q410.8-8.95 409.25-6 407.7-3.05 405.05-1.35 402.4 0.35 399.1 0.35L399.1 0.35Q397.35 0.35 395.78-0.18 394.2-0.7 392.9-1.6 391.6-2.5 390.6-3.73 389.6-4.95 389-6.4L389-6.4 389.9-7.05 389.9 8.5Q389.9 9.1 389.48 9.55 389.05 10 388.4 10L388.4 10Q387.75 10 387.33 9.55 386.9 9.1 386.9 8.5L386.9 8.5 386.9-24.1Q386.9-24.75 387.3-25.2 387.7-25.65 388.4-25.65L388.4-25.65Q389.05-25.65 389.48-25.2 389.9-24.75 389.9-24.1L389.9-24.1 389.9-18.7 389.2-19.1Q389.7-20.65 390.68-21.88 391.65-23.1 392.95-23.98 394.25-24.85 395.8-25.3 397.35-25.75 399.05-25.75ZM398.8-22.95L398.8-22.95Q396.1-22.95 394.05-21.63 392-20.3 390.83-18.03 389.65-15.75 389.65-12.75L389.65-12.75Q389.65-9.8 390.83-7.45 392-5.1 394.05-3.78 396.1-2.45 398.8-2.45L398.8-2.45Q401.45-2.45 403.48-3.78 405.5-5.1 406.7-7.45 407.9-9.8 407.9-12.75L407.9-12.75Q407.9-15.7 406.7-18 405.5-20.3 403.48-21.63 401.45-22.95 398.8-22.95ZM419.9-24.5L419.9-1.5Q419.9-0.9 419.45-0.45 419 0 418.4 0L418.4 0Q417.75 0 417.32-0.45 416.9-0.9 416.9-1.5L416.9-1.5 416.9-24.5Q416.9-25.1 417.32-25.55 417.75-26 418.4-26L418.4-26Q419.05-26 419.48-25.55 419.9-25.1 419.9-24.5L419.9-24.5ZM418.4-29.35L418.4-29.35Q417.35-29.35 416.82-29.83 416.3-30.3 416.3-31.2L416.3-31.2 416.3-31.7Q416.3-32.6 416.88-33.08 417.45-33.55 418.45-33.55L418.45-33.55Q419.4-33.55 419.93-33.08 420.45-32.6 420.45-31.7L420.45-31.7 420.45-31.2Q420.45-30.3 419.93-29.83 419.4-29.35 418.4-29.35ZM429.4-2.8L443.7-2.8Q444.3-2.8 444.72-2.38 445.15-1.95 445.15-1.4L445.15-1.4Q445.15-0.8 444.72-0.4 444.3 0 443.7 0L443.7 0 427.45 0Q426.8 0 426.4-0.5 426-1 426-1.45L426-1.45Q426-1.75 426.1-2.02 426.2-2.3 426.45-2.6L426.45-2.6 441.6-23.55 441.8-23.1 428.7-23.1Q428.1-23.1 427.67-23.53 427.25-23.95 427.25-24.5L427.25-24.5Q427.25-25.1 427.67-25.5 428.1-25.9 428.7-25.9L428.7-25.9 444.05-25.9Q444.6-25.9 445.02-25.45 445.45-25 445.45-24.4L445.45-24.4Q445.45-24.1 445.35-23.85 445.25-23.6 445.05-23.3L445.05-23.3 430-2.55 429.4-2.8ZM453.34-2.8L467.64-2.8Q468.25-2.8 468.67-2.38 469.09-1.95 469.09-1.4L469.09-1.4Q469.09-0.8 468.67-0.4 468.25 0 467.64 0L467.64 0 451.39 0Q450.75 0 450.34-0.5 449.94-1 449.94-1.45L449.94-1.45Q449.94-1.75 450.05-2.02 450.14-2.3 450.39-2.6L450.39-2.6 465.55-23.55 465.75-23.1 452.64-23.1Q452.05-23.1 451.62-23.53 451.19-23.95 451.19-24.5L451.19-24.5Q451.19-25.1 451.62-25.5 452.05-25.9 452.64-25.9L452.64-25.9 468-25.9Q468.55-25.9 468.97-25.45 469.39-25 469.39-24.4L469.39-24.4Q469.39-24.1 469.3-23.85 469.19-23.6 469-23.3L469-23.3 453.94-2.55 453.34-2.8ZM496.34-25.55L496.34-25.55Q496.99-25.55 497.42-25.1 497.84-24.65 497.84-24L497.84-24 497.84-1.5Q497.84-0.9 497.39-0.45 496.94 0 496.34 0L496.34 0Q495.64 0 495.24-0.45 494.84-0.9 494.84-1.5L494.84-1.5 494.84-7.45 495.69-7.85Q495.69-6.45 494.92-5 494.14-3.55 492.79-2.3 491.44-1.05 489.62-0.28 487.79 0.5 485.64 0.5L485.64 0.5Q482.29 0.5 479.62-1.25 476.94-3 475.42-6.05 473.89-9.1 473.89-12.9L473.89-12.9Q473.89-16.8 475.44-19.78 476.99-22.75 479.64-24.45 482.29-26.15 485.59-26.15L485.59-26.15Q487.74-26.15 489.62-25.4 491.49-24.65 492.89-23.35 494.29-22.05 495.09-20.38 495.89-18.7 495.89-16.9L495.89-16.9 494.84-17.65 494.84-24Q494.84-24.65 495.24-25.1 495.64-25.55 496.34-25.55ZM485.94-2.3L485.94-2.3Q488.59-2.3 490.64-3.68 492.69-5.05 493.87-7.48 495.04-9.9 495.04-12.9L495.04-12.9Q495.04-15.85 493.87-18.2 492.69-20.55 490.64-21.95 488.59-23.35 485.94-23.35L485.94-23.35Q483.34-23.35 481.27-22 479.19-20.65 478.02-18.3 476.84-15.95 476.84-12.9L476.84-12.9Q476.84-9.9 477.99-7.48 479.14-5.05 481.22-3.68 483.29-2.3 485.94-2.3ZM506.39-9.8L506.39-9.8Q505.44-9.8 505.34-10.85L505.34-10.85 504.79-32.95Q504.79-33.85 505.14-34.43 505.49-35 506.39-35L506.39-35Q507.24-35 507.62-34.43 507.99-33.85 507.94-32.95L507.94-32.95 507.39-10.85Q507.34-9.8 506.39-9.8ZM506.54 0L506.24 0Q505.39 0 504.92-0.53 504.44-1.05 504.44-1.9L504.44-1.9 504.44-3Q504.44-3.9 504.92-4.4 505.39-4.9 506.24-4.9L506.24-4.9 506.54-4.9Q507.44-4.9 507.87-4.4 508.29-3.9 508.29-3L508.29-3 508.29-1.9Q508.29-1.05 507.87-0.53 507.44 0 506.54 0L506.54 0Z" opacity="1" transform="matrix(1,0,0,1,0,0)" fill="#6b9f64" class="slogan-text-1" data-fill-palette-color="secondary" id="text-1"></path></svg></g></svg></g></svg></g></svg></g><g><svg viewBox="0 0 90.7521115101393 90.7521115101393" height="90.7521115101393" width="90.7521115101393"><g><svg></svg></g><g id="icon-0"><svg viewBox="0 0 90.7521115101393 90.7521115101393" height="90.7521115101393" width="90.7521115101393"><g><path d="M0 45.376c0-25.061 20.316-45.376 45.376-45.376 25.061 0 45.376 20.316 45.376 45.376 0 25.061-20.316 45.376-45.376 45.376-25.061 0-45.376-20.316-45.376-45.376zM45.376 87.724c23.388 0 42.347-18.96 42.348-42.348 0-23.388-18.96-42.347-42.348-42.347-23.388 0-42.347 18.96-42.347 42.347 0 23.388 18.96 42.347 42.347 42.348z" data-fill-palette-color="accent" fill="#6b9f64" stroke="transparent"></path><ellipse rx="44.922295197518956" ry="44.922295197518956" cx="45.37605575506965" cy="45.37605575506965" fill="#6b9f64" stroke="transparent" stroke-width="0" fill-opacity="1" data-fill-palette-color="accent"></ellipse></g><g transform="matrix(1,0,0,1,26.725045035770044,20.703448512035006)"><svg viewBox="0 0 37.30202143859921 49.34521448606929" height="49.34521448606929" width="37.30202143859921"><g><svg version="1.1" xmlns="http://www.w3.org/2000/svg" xmlns:xlink="http://www.w3.org/1999/xlink" x="0" y="0" viewBox="0 0 75.594 100" enable-background="new 0 0 75.594 100" xml:space="preserve" id="dxe-0" width="37.30202143859921" height="49.34521448606929" class="icon-dxe-0" data-fill-palette-color="quaternary"><path d="M37.797 14A85.5 85.5 0 0 1 70.289 20.394L75.594 7.398C63.932 2.633 51.173 0 37.797 0S11.662 2.633 0 7.398L5.305 20.394A85.5 85.5 0 0 1 37.797 14" fill="#ffffff" data-fill-palette-color="quaternary"></path><path d="M37.797 18A81.5 81.5 0 0 0 6.817 24.096L37.797 100 68.777 24.096A81.5 81.5 0 0 0 37.797 18M20.297 36A8 8 0 1 1 36.297 36 8 8 0 0 1 20.298 36M37.797 69C35.035 69 32.797 66.762 32.797 64S35.035 59 37.797 59 42.797 61.238 42.797 64 40.559 69 37.797 69M51.297 39A6 6 0 0 1 51.297 27 6 6 0 0 1 51.297 39" fill="#ffffff" data-fill-palette-color="quaternary"></path></svg></g></svg></g></svg></g></svg></g></svg></g></svg></g><defs></defs></svg><rect width="395.5199999999999" height="71.48424687168368" fill="none" stroke="none" visibility="hidden"></rect></g></svg></g></svg>